<svg aria-hidden="true" style="position: absolute; width: 0; height: 0; overflow: hidden;" version="1.1" xmlns="http://www.w3.org/2000/svg" xmlns:xlink="http://www.w3.org/1999/xlink">
<defs>
<symbol id="icon-android" viewBox="0 0 32 32">
<path d="M1.633 11.723c-0.882 0-1.597 0.715-1.597 1.597v7.452c0 0.882 0.715 1.597 1.597 1.597s1.597-0.715 1.597-1.597v-7.452c0-0.882-0.715-1.597-1.597-1.597z"></path>
<path d="M19.731 11.723c-0.882 0-1.597 0.715-1.597 1.597v7.452c0 0.882 0.715 1.597 1.597 1.597s1.597-0.715 1.597-1.597v-7.452c0-0.882-0.715-1.597-1.597-1.597z"></path>
<path d="M16.537 11.723h-11.71c-0.294 0-0.532 0.238-0.532 0.532v8.517c-0 1.265 0.89 2.355 2.129 2.608v3.779c0 0.882 0.715 1.597 1.597 1.597s1.597-0.715 1.597-1.597v-3.726h2.129v3.726c0 0.882 0.715 1.597 1.597 1.597s1.597-0.715 1.597-1.597v-3.779c1.239-0.253 2.129-1.343 2.129-2.608v-8.517c-0-0.294-0.238-0.532-0.532-0.532z"></path>
<path d="M14.552 5.412l1.298-1.297c0.211-0.204 0.217-0.541 0.013-0.753s-0.541-0.217-0.753-0.013c-0.004 0.004-0.009 0.009-0.013 0.013l-1.512 1.512c-1.852-0.804-3.954-0.804-5.805 0l-1.512-1.513c-0.211-0.204-0.548-0.198-0.753 0.013-0.199 0.206-0.199 0.533 0 0.74l1.297 1.298c-1.581 1.046-2.527 2.819-2.518 4.714 0 0.294 0.238 0.532 0.532 0.532h11.71c0.294 0 0.532-0.238 0.532-0.532 0.010-1.895-0.937-3.668-2.518-4.714z"></path>
<path d="M8.553 7.997c0 0.294-0.238 0.532-0.532 0.532s-0.532-0.238-0.532-0.532c0-0.294 0.238-0.532 0.532-0.532s0.532 0.238 0.532 0.532z" fill="#FAFAFA"></path>
<path d="M13.876 7.997c0 0.294-0.238 0.532-0.532 0.532s-0.532-0.238-0.532-0.532c0-0.294 0.238-0.532 0.532-0.532s0.532 0.238 0.532 0.532z" fill="#FAFAFA"></path>
</symbol>
<symbol id="icon-chat" viewBox="0 0 32 32">
<path d="M30.967 1.965c0.518 0 0.938 0.42 0.938 0.938v18.518c0 0.7-0.739 1.149-1.358 0.839l-6.809-3.404h-2.844v6.569c0 0.518-0.42 0.938-0.938 0.938h-11.79l-6.809 3.404c-0.619 0.309-1.358-0.139-1.358-0.839v-18.518c0-0.518 0.42-0.938 0.938-0.938h10.072v-6.569c0-0.518 0.42-0.938 0.938-0.938h19.018zM19.018 24.486v-5.63h-7.069c-0.518 0-0.938-0.42-0.938-0.938v-6.569h-9.134v16.061l5.649-2.824c0.13-0.065 0.274-0.099 0.42-0.099h11.073zM24.38 17.078l5.649 2.824v-16.061h-17.141v13.138h11.073c0.146 0 0.289 0.034 0.42 0.099z"></path>
<path d="M7.945 20.482h-3.003c-0.518 0-0.938 0.42-0.938 0.938s0.42 0.938 0.938 0.938h3.003c0.518 0 0.938-0.42 0.938-0.938s-0.42-0.938-0.938-0.938z"></path>
<path d="M4.942 18.856h1.501c0.518 0 0.938-0.42 0.938-0.938s-0.42-0.938-0.938-0.938h-1.501c-0.518 0-0.938 0.42-0.938 0.938s0.42 0.938 0.938 0.938z"></path>
<path d="M4.942 15.353h1.501c0.518 0 0.938-0.42 0.938-0.938s-0.42-0.938-0.938-0.938h-1.501c-0.518 0-0.938 0.42-0.938 0.938s0.42 0.938 0.938 0.938z"></path>
<path d="M21.461 7.443c1.265-1.264 3.113-1.134 4.202-0.044 1.149 1.149 1.149 3.009-0 4.158l-3.539 3.539c-0.366 0.366-0.961 0.366-1.327 0l-3.539-3.539c-1.149-1.149-1.149-3.009 0-4.158 1.092-1.091 2.94-1.217 4.203 0.044zM21.461 13.106l2.875-2.875c0.416-0.416 0.416-1.088 0-1.504-0.415-0.415-1.089-0.415-1.504 0l-1.15 1.15c-0.123 0.122-0.32 0.122-0.443 0l-1.15-1.15c-0.415-0.415-1.089-0.415-1.504 0-0.416 0.416-0.416 1.088 0 1.504l2.875 2.875z"></path>
</symbol>
<symbol id="icon-document" viewBox="0 0 32 32">
<path d="M19.5 8.45v19.6c0 0.42-0.33 0.75-0.75 0.75h-18c-0.42 0-0.75-0.33-0.75-0.75v-24.1c0-0.42 0.33-0.75 0.75-0.75h12l1.5 2.625 1.5 1.125 3.75 1.5z"></path>
<path d="M19.2 7.85l-6-4.5c-0.135-0.090-0.285-0.15-0.45-0.15v4.5c0 0.414 0.336 0.75 0.75 0.75h6c0-0.24-0.105-0.465-0.3-0.6z" fill="#D30037"></path>
<path d="M7.386 17.802c-0.22-0.351-0.113-0.814 0.239-1.033l3.457-2.159c0.35-0.217 0.814-0.112 1.033 0.24 0.22 0.351 0.113 0.814-0.239 1.033l-3.457 2.159c-0.347 0.217-0.812 0.115-1.033-0.24z" fill="white"></path>
<path d="M11.082 21.791l-3.457-2.159c-0.352-0.22-0.458-0.683-0.239-1.033 0.22-0.352 0.686-0.456 1.033-0.239l3.457 2.159c0.352 0.22 0.459 0.683 0.239 1.033-0.221 0.355-0.685 0.457-1.033 0.239z" fill="white"></path>
<path d="M6.75 20.45c-1.241 0-2.25-1.009-2.25-2.25s1.009-2.25 2.25-2.25c1.241 0 2.25 1.009 2.25 2.25s-1.009 2.25-2.25 2.25z" fill="white"></path>
<path d="M12.75 16.7c-1.241 0-2.25-1.009-2.25-2.25s1.009-2.25 2.25-2.25c1.241 0 2.25 1.009 2.25 2.25s-1.009 2.25-2.25 2.25z" fill="white"></path>
<path d="M12.75 24.2c-1.241 0-2.25-1.009-2.25-2.25s1.009-2.25 2.25-2.25c1.241 0 2.25 1.009 2.25 2.25s-1.009 2.25-2.25 2.25z" fill="white"></path>
</symbol>
<symbol id="icon-download" viewBox="0 0 32 32">
<path d="M25.833 8.816c-1.080-5.421-6.351-8.939-11.771-7.859-3.965 0.79-7.065 3.888-7.858 7.853-3.844 0.443-6.601 3.918-6.158 7.761 0.408 3.538 3.404 6.206 6.965 6.204h5.004c0.553 0 1.001-0.448 1.001-1.001s-0.448-1.001-1.001-1.001h-5.004c-2.764-0.016-4.991-2.27-4.975-5.034s2.27-4.991 5.034-4.975c0.51 0 0.939-0.384 0.995-0.891 0.508-4.392 4.481-7.541 8.874-7.033 3.693 0.427 6.606 3.34 7.033 7.033 0.084 0.516 0.531 0.894 1.054 0.891 2.764 0 5.004 2.24 5.004 5.004s-2.24 5.004-5.004 5.004h-5.004c-0.553 0-1.001 0.448-1.001 1.001s0.448 1.001 1.001 1.001h5.004c3.869-0.024 6.986-3.18 6.962-7.049-0.022-3.523-2.657-6.482-6.154-6.91z"></path>
<path d="M19.556 24.827l-2.537 2.538v-12.596c0-0.553-0.448-1.001-1.001-1.001s-1.001 0.448-1.001 1.001v12.596l-2.537-2.538c-0.384-0.398-1.018-0.409-1.415-0.025s-0.409 1.017-0.025 1.415c0.008 0.009 0.016 0.017 0.025 0.025l4.245 4.245c0.093 0.093 0.203 0.166 0.323 0.216 0.246 0.104 0.524 0.104 0.771 0 0.121-0.050 0.231-0.124 0.323-0.216l4.244-4.245c0.398-0.384 0.409-1.017 0.025-1.415s-1.018-0.409-1.415-0.025c-0.008 0.008-0.017 0.016-0.025 0.025z"></path>
</symbol>
<symbol id="icon-iphone" viewBox="0 0 32 32">
<path d="M12.198 8.783c-0.496 0.197-1.011 0.3-1.546 0.286-0.102-0.001-0.141-0.028-0.146-0.136-0.083-1.013 0.188-1.941 0.677-2.814 0.835-1.491 2.105-2.412 3.755-2.817 0.141-0.036 0.287-0.054 0.44-0.074 0.068-0.009 0.137-0.018 0.208-0.028 0.002 0.068 0.006 0.132 0.009 0.194 0.005 0.094 0.009 0.183 0.011 0.271 0.036 1.829-1.146 4.22-3.407 5.118zM20.754 22.060c0.026-0.077 0.052-0.153 0.078-0.228-1.998-0.994-3.217-2.526-3.369-4.79-0.15-2.263 0.883-3.934 2.698-5.199-0.013-0.019-0.031-0.046-0.048-0.070l-0.007-0.010c-0.72-1.010-1.673-1.703-2.844-2.095-0.826-0.277-1.675-0.39-2.546-0.319-0.582 0.046-1.139 0.21-1.687 0.41-0.535 0.198-1.068 0.401-1.601 0.604-0.481 0.184-0.96 0.184-1.441 0.004-0.522-0.196-1.043-0.393-1.563-0.592-0.988-0.38-1.995-0.48-3.031-0.236-1.722 0.403-3.031 1.381-3.959 2.874-0.74 1.188-1.061 2.505-1.143 3.889-0.070 1.154 0.044 2.293 0.282 3.422 0.551 2.626 1.692 4.971 3.393 7.044 0.359 0.437 0.743 0.849 1.2 1.188 0.368 0.272 0.765 0.484 1.219 0.568 0.52 0.098 1.030 0.031 1.522-0.134 0.296-0.1 0.585-0.218 0.875-0.337 0.126-0.052 0.251-0.103 0.378-0.153 1.156-0.457 2.324-0.513 3.499-0.086 0.234 0.085 0.464 0.184 0.694 0.282 0.125 0.053 0.25 0.107 0.376 0.158 0.493 0.201 1.004 0.297 1.537 0.28 0.709-0.025 1.322-0.297 1.855-0.748 0.27-0.227 0.53-0.471 0.754-0.742 1.161-1.388 2.117-2.903 2.747-4.609 0.047-0.125 0.090-0.252 0.132-0.376z"></path>
</symbol>
<symbol id="icon-macorwindows" viewBox="9 6 18 18">
<path d="M13.49 11.522v9.274c0 0.236-0.185 0.422-0.422 0.422h-5.421c-0.16-1.501-0.017-3.836 0.363-4.637 0 0-1.737 0-2.529 0 0-1.762 0.818-4.005 1.644-5.48h5.944c0.236 0 0.422 0.185 0.422 0.422z" fill="#FFE7ED"></path>
<path d="M7.647 21.218h-7.226c-0.236 0-0.422-0.186-0.422-0.422v-9.274c0-0.236 0.185-0.422 0.422-0.422h6.703c-0.826 1.475-1.644 3.718-1.644 5.48 0.793 0 2.529 0 2.529 0-0.379 0.801-0.523 3.136-0.363 4.637z" fill="#FFE7ED"></path>
<path d="M7.999 22.9c-0.104 0-0.207-0.039-0.287-0.12-0.705-0.705-0.675-4.117-0.278-5.778h-1.953c-0.233 0-0.422-0.189-0.422-0.422 0-2.547 1.584-5.974 2.653-7.044 0.164-0.164 0.432-0.164 0.596 0s0.164 0.432 0 0.596c-0.796 0.797-2.227 3.706-2.39 6.026h2.093c0.144 0 0.278 0.073 0.356 0.195s0.088 0.275 0.026 0.405c-0.517 1.105-0.497 4.968-0.083 5.426 0.153 0.169 0.15 0.438-0.016 0.595-0.083 0.079-0.189 0.12-0.293 0.12z"></path>
<path d="M6.745 19.532c-0.803 0-2.26-0.229-3.944-0.871-0.218-0.083-0.326-0.326-0.244-0.544s0.326-0.329 0.545-0.244c1.578 0.602 2.949 0.815 3.643 0.815s2.065-0.213 3.644-0.815c0.216-0.084 0.461 0.024 0.544 0.244 0.083 0.218-0.025 0.461-0.244 0.544-1.684 0.642-3.142 0.871-3.944 0.871z"></path>
<path d="M3.794 14.473c-0.233 0-0.422-0.189-0.422-0.422v-0.843c0-0.233 0.189-0.422 0.422-0.422s0.422 0.189 0.422 0.422v0.843c0 0.233-0.189 0.422-0.422 0.422z"></path>
<path d="M8.853 14.473c-0.233 0-0.422-0.189-0.422-0.422v-0.843c0-0.233 0.189-0.422 0.422-0.422s0.422 0.189 0.422 0.422v0.843c0 0.233-0.189 0.422-0.422 0.422z"></path>
<path d="M24.644 15.507v-4.644l-5.533 0.692v3.952h5.533z"></path>
<path d="M25.435 15.507h6.323v-5.533l-6.323 0.79v4.743z"></path>
<path d="M25.435 16.297v4.743l6.323 0.79v-5.533h-6.323z"></path>
<path d="M24.644 16.297h-5.533v3.952l5.533 0.692v-4.644z"></path>
</symbol>
<symbol id="icon-say" viewBox="0 0 32 32">
<path d="M12.69 3.945c-6.997 0-12.69 5.123-12.69 11.421 0 2.201 0.696 4.334 2.017 6.177-0.25 2.765-0.92 4.818-1.893 5.79-0.129 0.129-0.161 0.325-0.080 0.488 0.072 0.145 0.22 0.234 0.379 0.234 0.019 0 0.039-0.001 0.059-0.004 0.171-0.024 4.151-0.597 7.029-2.258 1.634 0.659 3.375 0.994 5.179 0.994 6.997 0 12.69-5.123 12.69-11.421s-5.693-11.421-12.69-11.421z"></path>
<path d="M6.768 17.058c-0.933 0-1.692-0.759-1.692-1.692s0.759-1.692 1.692-1.692 1.692 0.759 1.692 1.692c0 0.933-0.759 1.692-1.692 1.692z" fill="white"></path>
<path d="M12.69 17.058c-0.933 0-1.692-0.759-1.692-1.692s0.759-1.692 1.692-1.692 1.692 0.759 1.692 1.692c0 0.933-0.759 1.692-1.692 1.692z" fill="white"></path>
<path d="M18.611 17.058c-0.933 0-1.692-0.759-1.692-1.692s0.759-1.692 1.692-1.692 1.692 0.759 1.692 1.692c0 0.933-0.759 1.692-1.692 1.692z" fill="white"></path>
</symbol>
<symbol id="icon-security" viewBox="0 0 32 32">
<path d="M21.978 6.416l-10.646-3.194c-0.1-0.030-0.206-0.030-0.306 0l-10.646 3.194c-0.225 0.067-0.38 0.275-0.38 0.51v11.71c0 4.707 7.177 8.894 11.021 10.090 0.104 0.033 0.215 0.033 0.319 0 3.839-1.197 11.016-5.384 11.016-10.090v-11.71c0-0.235-0.154-0.442-0.379-0.51z"></path>
<path d="M10.114 20.233c-0.141 0-0.277-0.056-0.377-0.155l-4.258-4.258c-0.204-0.211-0.198-0.548 0.013-0.753 0.206-0.199 0.533-0.199 0.74 0l3.883 3.881 7.075-7.075c0.204-0.211 0.541-0.217 0.753-0.013s0.217 0.541 0.013 0.753c-0.004 0.004-0.009 0.009-0.013 0.013l-7.452 7.452c-0.1 0.1-0.235 0.155-0.376 0.155z" fill="#FAFAFA"></path>
</symbol>
</defs>
</svg>
